<?xml version="1.0" encoding="utf-8"?>
<!-- Generator: Adobe Illustrator 16.0.3, SVG Export Plug-In . SVG Version: 6.00 Build 0)  -->
<!DOCTYPE svg PUBLIC "-//W3C//DTD SVG 1.1//EN" "http://www.w3.org/Graphics/SVG/1.1/DTD/svg11.dtd">
<svg version="1.1" id="two-tier-round_xA0_Image_1_"
	 xmlns="http://www.w3.org/2000/svg" xmlns:xlink="http://www.w3.org/1999/xlink" x="0px" y="0px" width="400px" height="400px"
	 viewBox="0 0 400 400" enable-background="new 0 0 400 400" xml:space="preserve">
<g>
	<g>
		<path fill="none" d="M7.967,396.838c0-130.291,0-260.58,0-390.871c129,0,258,0,387,0c0,130.291,0,260.58,0,390.871
			C265.968,396.838,136.968,396.838,7.967,396.838z M112.499,215.183c-9.922,1.9-19.107,3.558-28.244,5.452
			c-4.604,0.955-6.782,3.434-6.737,8.806c0.279,33.208,0.277,66.422,0.001,99.632c-0.044,5.332,2.019,7.95,6.679,8.838
			c9.167,1.745,18.332,3.788,27.597,4.671c56.313,5.364,112.689,5.236,169.038,0.666c11.512-0.935,22.912-3.406,34.316-5.434
			c4.473-0.795,6.422-3.486,6.385-8.553c-0.246-32.565-0.126-65.132-0.126-97.698c0-8.872-0.437-9.759-9.205-11.658
			c-8.309-1.8-16.751-2.982-25.636-4.522c0-1.63,0-3.366,0-5.103c0-27.73-0.139-55.461,0.127-83.188
			c0.048-5.05-1.9-7.577-6.338-8.662c-4.689-1.146-9.396-2.375-14.17-2.998c-39.338-5.136-78.786-5.071-118.237-1.753
			c-9.593,0.807-19.097,2.844-28.591,4.588c-4.812,0.884-7.066,3.556-7.002,9.119c0.315,27.565,0.144,55.135,0.144,82.704
			C112.499,211.838,112.499,213.585,112.499,215.183z"/>
		<path fill-rule="evenodd" clip-rule="evenodd" d="M112.499,215.183c0-1.598,0-3.345,0-5.092c0-27.569,0.171-55.139-0.144-82.704
			c-0.064-5.563,2.191-8.235,7.002-9.119c9.495-1.744,18.998-3.781,28.591-4.588c39.452-3.318,78.899-3.383,118.237,1.753
			c4.773,0.623,9.48,1.852,14.17,2.998c4.438,1.085,6.386,3.611,6.338,8.662c-0.266,27.727-0.127,55.458-0.127,83.188
			c0,1.736,0,3.473,0,5.103c8.885,1.54,17.327,2.723,25.636,4.522c8.769,1.899,9.205,2.786,9.205,11.658
			c0,32.566-0.12,65.133,0.126,97.698c0.037,5.066-1.912,7.758-6.385,8.553c-11.404,2.027-22.805,4.499-34.316,5.434
			c-56.349,4.57-112.725,4.698-169.038-0.666c-9.265-0.883-18.431-2.926-27.597-4.671c-4.66-0.888-6.723-3.506-6.679-8.838
			c0.276-33.21,0.278-66.424-0.001-99.632c-0.045-5.372,2.132-7.851,6.737-8.806C93.391,218.74,102.576,217.083,112.499,215.183z
			 M81.714,230.569c0,0.899,0,2.61,0,4.322c0,30.468,0,60.937,0,91.404c0,8.634,0.048,8.806,8.811,10.557
			c25.057,5.008,50.501,6.48,75.92,6.536c35.276,0.077,70.571-0.696,105.824-2.006c13.25-0.492,26.409-3.479,39.603-5.377
			c4.217-0.606,5.613-2.954,5.586-7.362c-0.197-31.433-0.104-62.869-0.115-94.305c0-1.545-0.135-3.089-0.168-3.787
			C238.591,241.165,160.432,241.292,81.714,230.569z M115.615,127.86c0.041-0.181-0.151,0.268-0.151,0.716
			c-0.004,28.848,0.1,57.697-0.085,86.543c-0.027,4.267,2.051,5.925,5.459,6.521c9.489,1.664,18.98,4.025,28.541,4.422
			c25.096,1.041,50.247,1.98,75.341,1.41c17.128-0.389,34.242-3.056,51.271-5.367c7.602-1.031,7.634-1.866,7.641-9.518
			c0.028-27.236,0.016-54.473,0.002-81.71c0-1.231-0.148-2.462-0.187-3.065C227.371,137.208,171.602,137.272,115.615,127.86z
			 M283.276,124.849c0.003-0.795,0.005-1.59,0.007-2.386c-1.827-0.8-3.586-2-5.496-2.333c-9.325-1.635-18.642-3.592-28.051-4.422
			c-30.532-2.692-61.142-2.761-91.7-0.646c-12.301,0.852-24.505,3.201-36.724,5.067c-1.984,0.302-3.809,1.641-5.708,2.501
			c0.057,0.481,0.112,0.964,0.168,1.447c2.51,0.913,4.955,2.294,7.542,2.656c11.61,1.625,23.227,3.365,34.902,4.319
			c34.441,2.816,68.867,2.004,103.196-1.767C268.773,128.476,275.992,126.362,283.276,124.849z M316.76,226.928
			c-0.062-0.592-0.124-1.185-0.186-1.777c-3.729-3.049-12.996-5.096-24.758-6.43c-3.838-0.435-5.548,2.199-8.287,3.175
			c-5.714,2.035-11.696,4.021-17.683,4.46c-22.952,1.681-45.955,3.843-68.929,3.722c-22.807-0.12-45.614-2.597-68.388-4.458
			c-4.684-0.383-9.873-1.676-13.616-4.287c-3.114-2.173-5.72-2.827-9.005-2.319c-5.557,0.859-11.119,1.74-16.616,2.904
			c-2.464,0.523-4.778,1.754-8.002,2.985c1.575,1.179,2.008,1.67,2.55,1.877c1.643,0.627,3.292,1.468,5.001,1.653
			c21.24,2.303,42.443,5.491,63.75,6.53c47.332,2.307,94.673,1.687,141.829-3.731C301.934,230.369,309.317,228.391,316.76,226.928z"
			/>
		<path fill-rule="evenodd" clip-rule="evenodd" fill="none" d="M81.714,230.569c78.718,10.723,156.877,10.596,235.46-0.018
			c0.033,0.698,0.168,2.242,0.168,3.787c0.012,31.436-0.082,62.872,0.115,94.305c0.027,4.408-1.369,6.756-5.586,7.362
			c-13.193,1.898-26.353,4.885-39.603,5.377c-35.253,1.31-70.548,2.083-105.824,2.006c-25.419-0.056-50.863-1.528-75.92-6.536
			c-8.763-1.751-8.811-1.923-8.811-10.557c0-30.468,0-60.937,0-91.404C81.714,233.18,81.714,231.469,81.714,230.569z"/>
		<path fill-rule="evenodd" clip-rule="evenodd" fill="none" d="M115.615,127.86c55.987,9.412,111.756,9.347,167.832-0.047
			c0.038,0.603,0.187,1.834,0.187,3.065c0.014,27.237,0.026,54.474-0.002,81.71c-0.007,7.651-0.039,8.486-7.641,9.518
			c-17.029,2.312-34.144,4.979-51.271,5.367c-25.094,0.57-50.245-0.369-75.341-1.41c-9.56-0.396-19.052-2.758-28.541-4.422
			c-3.408-0.597-5.486-2.255-5.459-6.521c0.186-28.846,0.081-57.695,0.085-86.543C115.464,128.128,115.656,127.68,115.615,127.86z"
			/>
		<path fill-rule="evenodd" clip-rule="evenodd" fill="none" d="M283.276,124.849c-7.284,1.513-14.503,3.627-21.863,4.436
			c-34.329,3.771-68.755,4.583-103.196,1.767c-11.675-0.954-23.292-2.694-34.902-4.319c-2.587-0.362-5.032-1.743-7.542-2.656
			c-0.056-0.483-0.112-0.966-0.168-1.447c1.899-0.86,3.724-2.199,5.708-2.501c12.218-1.866,24.422-4.216,36.724-5.067
			c30.558-2.114,61.167-2.045,91.7,0.646c9.409,0.83,18.726,2.787,28.051,4.422c1.91,0.334,3.669,1.533,5.496,2.333
			C283.281,123.259,283.279,124.054,283.276,124.849z"/>
		<path fill-rule="evenodd" clip-rule="evenodd" fill="none" d="M316.76,226.928c-7.442,1.463-14.826,3.441-22.338,4.304
			c-47.156,5.418-94.498,6.038-141.829,3.731c-21.307-1.039-42.51-4.228-63.75-6.53c-1.709-0.186-3.359-1.026-5.001-1.653
			c-0.542-0.207-0.975-0.698-2.55-1.877c3.224-1.231,5.538-2.462,8.002-2.985c5.497-1.164,11.06-2.045,16.616-2.904
			c3.285-0.508,5.891,0.146,9.005,2.319c3.743,2.611,8.932,3.904,13.616,4.287c22.773,1.861,45.581,4.338,68.388,4.458
			c22.974,0.121,45.977-2.041,68.929-3.722c5.986-0.438,11.969-2.425,17.683-4.46c2.739-0.976,4.449-3.609,8.287-3.175
			c11.762,1.334,21.029,3.381,24.758,6.43C316.636,225.743,316.698,226.336,316.76,226.928z"/>

			<path fill-rule="evenodd" clip-rule="evenodd" fill="none" stroke="#000000" stroke-width="2" stroke-linecap="round" stroke-linejoin="round" stroke-miterlimit="10" d="
			M112.941,216.883c-9.514,1.773-19.033,3.521-28.534,5.359c-1.023,0.198-1.943,0.929-2.91,1.413"/>

			<path fill-rule="evenodd" clip-rule="evenodd" fill="none" stroke="#000000" stroke-width="2" stroke-linecap="round" stroke-linejoin="round" stroke-miterlimit="10" d="
			M81.981,335.401c10.803,2.097,21.526,5.01,32.43,6.1c16.859,1.685,33.833,2.517,50.777,2.991
			c20.79,0.582,41.614,0.98,62.397,0.445c26.866-0.693,53.795-1.416,80.294-6.698c3.317-0.66,6.463-2.192,9.688-3.321"/>

			<path fill-rule="evenodd" clip-rule="evenodd" fill="none" stroke="#000000" stroke-width="2" stroke-linecap="round" stroke-linejoin="round" stroke-miterlimit="10" d="
			M317.084,223.171c-9.03-1.935-18.058-3.883-27.093-5.789c-1.269-0.269-2.578-0.338-3.867-0.499"/>

			<path fill-rule="evenodd" clip-rule="evenodd" fill="none" stroke="#000000" stroke-width="2" stroke-linecap="round" stroke-linejoin="round" stroke-miterlimit="10" d="
			M318.051,227.525c-18.31,5.442-37.19,7.007-56.117,7.657c-28.046,0.964-56.118,2.044-84.168,1.798
			c-21.294-0.186-42.608-1.949-63.842-3.817c-11.209-0.987-22.267-3.703-33.394-5.638"/>

			<path fill-rule="evenodd" clip-rule="evenodd" fill="none" stroke="#000000" stroke-width="2" stroke-linecap="round" stroke-linejoin="round" stroke-miterlimit="10" d="
			M284.673,125.454c1.268-5.053-3.027-5.534-5.836-6.152c-7.651-1.686-15.407-3.383-23.198-3.878
			c-21.1-1.341-42.231-2.548-63.365-2.865c-14.661-0.219-29.375,0.753-44.008,1.91c-8.607,0.68-17.17,2.454-25.631,4.298
			c-8.677,1.893-8.713,2.277-8.719,11.042c-0.019,24.51-0.007,49.02-0.007,73.53c0,3.548,0.385,7.147-0.088,10.63
			c-0.753,5.546,2.037,7.973,6.866,8.685c12.724,1.878,25.426,4.148,38.224,5.204c13.974,1.153,28.049,1.59,42.072,1.481
			c16.613-0.126,33.251-0.746,49.815-1.98c9.1-0.677,18.115-2.854,27.088-4.739c6.371-1.338,7.379-1.767,7.336-9.122
			c-0.164-27.573-0.057-55.147-0.086-82.721c-0.002-1.613-0.302-3.225-0.463-4.837"/>

			<path fill-rule="evenodd" clip-rule="evenodd" fill="none" stroke="#000000" stroke-width="2" stroke-linecap="round" stroke-linejoin="round" stroke-miterlimit="10" d="
			M284.188,125.454c-56.437,11.512-112.875,11.734-169.312,0"/>
	</g>
</g>
</svg>
